<svg xmlns="http://www.w3.org/2000/svg" xmlns:xlink="http://www.w3.org/1999/xlink" width="500" zoomAndPan="magnify" viewBox="0 0 375 374.999991" height="500" preserveAspectRatio="xMidYMid meet" version="1.0"><defs><g/><clipPath id="0a507180b5"><path d="M 41.664062 12.371094 L 375 12.371094 L 375 345.707031 L 41.664062 345.707031 Z M 41.664062 12.371094 " clip-rule="nonzero"/></clipPath><clipPath id="c1e193581b"><path d="M 208.332031 12.371094 C 116.285156 12.371094 41.664062 86.992188 41.664062 179.039062 C 41.664062 271.085938 116.285156 345.707031 208.332031 345.707031 C 300.378906 345.707031 375 271.085938 375 179.039062 C 375 86.992188 300.378906 12.371094 208.332031 12.371094 " clip-rule="nonzero"/></clipPath><clipPath id="dd7c70e2f1"><path d="M 54.71875 179.039062 L 362.21875 179.039062 L 362.21875 332.789062 L 54.71875 332.789062 Z M 54.71875 179.039062 " clip-rule="nonzero"/></clipPath><clipPath id="f9947ab206"><path d="M 54.71875 25.425781 L 362.21875 25.425781 L 362.21875 179.175781 L 54.71875 179.175781 Z M 54.71875 25.425781 " clip-rule="nonzero"/></clipPath><clipPath id="7d6104dc4f"><path d="M 181.660156 74.5 L 234.910156 74.5 L 234.910156 130 L 181.660156 130 Z M 181.660156 74.5 " clip-rule="nonzero"/></clipPath></defs><g clip-path="url(#0a507180b5)"><g clip-path="url(#c1e193581b)"><path fill="#f7cdaf" d="M 41.664062 12.371094 L 375 12.371094 L 375 345.707031 L 41.664062 345.707031 Z M 41.664062 12.371094 " fill-opacity="1" fill-rule="nonzero"/></g></g><g clip-path="url(#dd7c70e2f1)"><path fill="#03e6c3" d="M 208.464844 332.785156 C 293.378906 332.785156 362.21875 263.953125 362.21875 179.039062 L 54.71875 179.039062 C 54.71875 263.953125 123.554688 332.785156 208.464844 332.785156 Z M 208.464844 332.785156 " fill-opacity="1" fill-rule="nonzero"/></g><g clip-path="url(#f9947ab206)"><path fill="#ffffff" d="M 362.21875 179.175781 L 345.6875 179.175781 C 345.6875 103.511719 284.128906 41.953125 208.46875 41.953125 C 132.804688 41.953125 71.246094 103.511719 71.246094 179.175781 L 54.71875 179.175781 C 54.71875 94.398438 123.691406 25.425781 208.46875 25.425781 C 293.246094 25.425781 362.21875 94.398438 362.21875 179.175781 Z M 362.21875 179.175781 " fill-opacity="1" fill-rule="nonzero"/></g><g fill="#ffffff" fill-opacity="1"><g transform="translate(90.176111, 222.373253)"><g><path d="M 77.203125 -3.078125 L 72.695312 -3.078125 L 50.371094 -75.554688 C 50.039062 -76.546875 49.378906 -76.984375 48.5 -76.984375 L 24.414062 -76.984375 C 23.644531 -76.984375 22.984375 -76.324219 22.984375 -75.445312 C 22.984375 -74.566406 23.644531 -73.90625 24.414062 -73.90625 L 30.792969 -73.90625 L 7.917969 -3.078125 L 1.757812 -3.078125 C 0.988281 -3.078125 0.328125 -2.308594 0.328125 -1.539062 C 0.328125 -0.660156 0.988281 0 1.757812 0 L 18.695312 0 C 19.464844 0 20.125 -0.660156 20.125 -1.539062 C 20.125 -2.308594 19.464844 -3.078125 18.695312 -3.078125 L 11.328125 -3.078125 L 17.375 -21.777344 L 49.269531 -21.777344 L 55.097656 -3.078125 L 48.941406 -3.078125 C 48.171875 -3.078125 47.511719 -2.308594 47.511719 -1.539062 C 47.511719 -0.660156 48.171875 0 48.941406 0 L 77.203125 0 C 77.976562 0 78.636719 -0.660156 78.636719 -1.539062 C 78.636719 -2.308594 77.976562 -3.078125 77.203125 -3.078125 Z M 58.507812 -3.078125 L 36.734375 -73.90625 L 47.511719 -73.90625 L 69.285156 -3.078125 Z M 48.390625 -24.855469 L 18.367188 -24.855469 L 33.761719 -72.257812 Z M 48.390625 -24.855469 "/></g></g></g><g fill="#ffffff" fill-opacity="1"><g transform="translate(169.461933, 222.373253)"><g><path d="M 75.773438 -76.984375 L 58.730469 -76.984375 C 57.957031 -76.984375 57.1875 -76.433594 57.1875 -75.554688 C 57.1875 -74.675781 57.957031 -73.90625 58.730469 -73.90625 L 66.207031 -73.90625 L 46.632812 -23.867188 L 25.734375 -73.796875 L 30.246094 -73.796875 C 31.125 -73.796875 31.785156 -74.566406 31.785156 -75.445312 C 31.785156 -76.214844 31.125 -76.875 30.246094 -76.875 L 2.199219 -76.875 C 1.210938 -76.875 0.550781 -76.324219 0.550781 -75.445312 C 0.550781 -74.457031 1.210938 -73.796875 2.199219 -73.796875 L 6.597656 -73.796875 L 37.613281 0.660156 C 37.941406 1.320312 38.492188 1.648438 39.152344 1.648438 C 39.8125 1.648438 40.363281 1.320312 40.582031 0.660156 L 69.617188 -73.90625 L 75.773438 -73.90625 C 76.765625 -73.90625 77.425781 -74.675781 77.425781 -75.554688 C 77.425781 -76.433594 76.765625 -76.984375 75.773438 -76.984375 Z M 44.871094 -19.355469 L 39.042969 -4.507812 L 10.226562 -73.796875 L 22.105469 -73.796875 Z M 44.871094 -19.355469 "/></g></g></g><g fill="#ffffff" fill-opacity="1"><g transform="translate(247.208233, 222.373253)"><g><path d="M 77.203125 -3.078125 L 72.695312 -3.078125 L 50.371094 -75.554688 C 50.039062 -76.546875 49.378906 -76.984375 48.5 -76.984375 L 24.414062 -76.984375 C 23.644531 -76.984375 22.984375 -76.324219 22.984375 -75.445312 C 22.984375 -74.566406 23.644531 -73.90625 24.414062 -73.90625 L 30.792969 -73.90625 L 7.917969 -3.078125 L 1.757812 -3.078125 C 0.988281 -3.078125 0.328125 -2.308594 0.328125 -1.539062 C 0.328125 -0.660156 0.988281 0 1.757812 0 L 18.695312 0 C 19.464844 0 20.125 -0.660156 20.125 -1.539062 C 20.125 -2.308594 19.464844 -3.078125 18.695312 -3.078125 L 11.328125 -3.078125 L 17.375 -21.777344 L 49.269531 -21.777344 L 55.097656 -3.078125 L 48.941406 -3.078125 C 48.171875 -3.078125 47.511719 -2.308594 47.511719 -1.539062 C 47.511719 -0.660156 48.171875 0 48.941406 0 L 77.203125 0 C 77.976562 0 78.636719 -0.660156 78.636719 -1.539062 C 78.636719 -2.308594 77.976562 -3.078125 77.203125 -3.078125 Z M 58.507812 -3.078125 L 36.734375 -73.90625 L 47.511719 -73.90625 L 69.285156 -3.078125 Z M 48.390625 -24.855469 L 18.367188 -24.855469 L 33.761719 -72.257812 Z M 48.390625 -24.855469 "/></g></g></g><g clip-path="url(#7d6104dc4f)"><path fill="#ffffff" d="M 185.09375 79.457031 C 186.308594 77.71875 188.09375 76.742188 189.824219 75.769531 C 191.070312 75.066406 192.476562 74.714844 193.976562 74.644531 C 196.332031 74.535156 198.414062 75.214844 200.242188 76.582031 C 201.351562 77.410156 202.335938 78.457031 203.226562 79.53125 C 204.023438 80.484375 204.65625 81.582031 205.28125 82.664062 C 206.230469 84.308594 206.914062 86.070312 207.363281 87.917969 C 207.808594 89.730469 208.179688 91.550781 208.238281 93.425781 C 208.242188 93.507812 208.308594 93.585938 208.34375 93.664062 C 208.429688 93.574219 208.582031 93.488281 208.597656 93.382812 C 208.816406 91.929688 209.398438 90.601562 209.945312 89.257812 C 210.511719 87.855469 211.234375 86.542969 212.207031 85.390625 C 213.085938 84.347656 214.007812 83.328125 214.980469 82.363281 C 216.332031 81.015625 217.683594 79.652344 219.15625 78.445312 C 220.664062 77.210938 222.398438 76.335938 224.335938 75.925781 C 227.3125 75.296875 230.105469 75.570312 232.359375 77.84375 C 233.667969 79.164062 234.402344 80.839844 234.640625 82.695312 C 234.773438 83.734375 234.914062 84.792969 234.875 85.835938 C 234.808594 87.609375 234.445312 89.347656 233.960938 91.0625 C 233.238281 93.621094 232.113281 96 231.007812 98.394531 C 230.089844 100.382812 229.3125 102.4375 228.40625 104.433594 C 227.851562 105.660156 227.183594 106.839844 226.546875 108.03125 C 225.9375 109.171875 225.335938 110.324219 224.675781 111.433594 C 223.265625 113.808594 221.820312 116.164062 220.382812 118.519531 C 218.539062 121.542969 216.707031 124.574219 214.820312 127.570312 C 214.375 128.28125 213.777344 128.917969 213.15625 129.484375 C 212.621094 129.96875 212.007812 129.746094 211.539062 129.164062 C 211.140625 128.667969 210.648438 128.242188 210.191406 127.796875 C 208.40625 126.042969 206.554688 124.351562 204.847656 122.519531 C 203.625 121.210938 202.570312 119.742188 201.492188 118.304688 C 200.574219 117.082031 199.40625 116.144531 198.242188 115.195312 C 197.238281 114.371094 196.222656 113.566406 195.199219 112.765625 C 192.964844 111.015625 190.847656 109.132812 188.902344 107.0625 C 187.414062 105.484375 186.167969 103.722656 185.050781 101.859375 C 183.734375 99.671875 182.871094 97.304688 182.226562 94.855469 C 181.96875 93.882812 181.929688 92.847656 181.828125 91.835938 C 181.753906 91.085938 181.660156 90.324219 181.710938 89.578125 C 181.875 87.261719 182.257812 84.984375 183.304688 82.878906 C 183.871094 81.738281 184.476562 80.617188 185.09375 79.457031 M 220.132812 81.425781 C 219.011719 81.886719 217.929688 82.40625 217.164062 83.402344 C 216.0625 84.839844 214.851562 86.207031 213.890625 87.730469 C 212.726562 89.574219 211.738281 91.53125 210.746094 93.476562 C 209.84375 95.242188 209.671875 97.21875 209.367188 99.144531 C 209.214844 100.117188 209.207031 101.113281 209.101562 102.097656 C 209.003906 103.019531 208.191406 103.5 207.632812 102.949219 C 207.414062 102.726562 207.449219 102.25 207.363281 101.886719 C 207.332031 101.769531 207.28125 101.652344 207.242188 101.535156 C 207.15625 101.632812 207.042969 101.71875 206.996094 101.832031 C 206.773438 102.320312 206.597656 102.832031 206.359375 103.316406 C 206.171875 103.699219 205.445312 103.972656 205.164062 103.742188 C 204.820312 103.464844 204.449219 103.183594 204.734375 102.585938 C 205.195312 101.617188 205.582031 100.609375 205.976562 99.609375 C 206.160156 99.144531 206.34375 98.714844 206.078125 98.160156 C 205.394531 96.71875 204.785156 95.242188 204.171875 93.769531 C 203.167969 91.367188 201.828125 89.15625 200.242188 87.101562 C 199.429688 86.050781 198.550781 85.050781 197.695312 84.035156 C 196.042969 82.078125 194.203125 80.351562 191.785156 79.371094 C 190.847656 78.988281 189.875 78.714844 188.847656 79.050781 C 187.90625 79.359375 187.390625 80.171875 186.824219 80.878906 C 186.433594 81.367188 186.140625 81.972656 185.953125 82.570312 C 185.648438 83.527344 185.460938 84.511719 185.671875 85.542969 C 185.824219 86.304688 185.773438 87.113281 185.960938 87.863281 C 186.484375 89.984375 187.265625 92.019531 188.285156 93.949219 C 189.335938 95.933594 190.414062 97.902344 191.550781 99.835938 C 192.792969 101.949219 194.085938 104.039062 195.417969 106.097656 C 196.921875 108.417969 198.480469 110.699219 200.039062 112.980469 C 200.644531 113.867188 201.242188 114.78125 201.992188 115.53125 C 202.789062 116.324219 203.746094 116.964844 204.667969 117.621094 C 206.25 118.75 207.835938 119.875 209.46875 120.925781 C 210.703125 121.726562 212.007812 122.410156 213.28125 123.148438 C 213.648438 123.359375 213.921875 123.386719 214.144531 122.921875 C 214.359375 122.46875 214.667969 122.058594 214.925781 121.621094 C 215.9375 119.898438 216.941406 118.171875 217.953125 116.449219 C 218.835938 114.941406 219.703125 113.425781 220.609375 111.933594 C 221.617188 110.265625 222.679688 108.632812 223.683594 106.964844 C 224.964844 104.835938 226.144531 102.644531 227.488281 100.558594 C 229.40625 97.585938 230.105469 94.273438 230.390625 90.839844 C 230.488281 89.679688 230.371094 88.5 230.277344 87.335938 C 230.171875 86.082031 229.859375 84.886719 229.171875 83.800781 C 227.855469 81.710938 225.976562 80.554688 223.535156 80.59375 C 222.417969 80.609375 221.308594 81.089844 220.132812 81.425781 M 206.304688 92.417969 C 206.027344 91.011719 205.867188 89.570312 205.4375 88.21875 C 204.945312 86.667969 204.304688 85.148438 203.558594 83.699219 C 202.304688 81.265625 200.644531 79.144531 198.242188 77.710938 C 196.402344 76.617188 194.457031 76.320312 192.390625 76.894531 C 192.179688 76.953125 191.988281 77.078125 191.789062 77.171875 C 191.988281 77.253906 192.191406 77.339844 192.390625 77.425781 C 192.441406 77.449219 192.492188 77.480469 192.546875 77.5 C 194.328125 78.121094 195.808594 79.238281 197.140625 80.519531 C 198.429688 81.757812 199.582031 83.144531 200.761719 84.496094 C 202.527344 86.511719 203.871094 88.8125 205.109375 91.171875 C 205.539062 91.988281 205.847656 92.863281 206.226562 93.703125 C 206.269531 93.796875 206.40625 93.847656 206.496094 93.914062 C 206.527344 93.800781 206.59375 93.683594 206.578125 93.574219 C 206.523438 93.207031 206.441406 92.84375 206.304688 92.417969 M 184.003906 88.167969 C 183.898438 88.433594 183.707031 88.699219 183.707031 88.964844 C 183.707031 89.820312 183.769531 90.679688 183.816406 91.535156 C 183.847656 92.039062 183.835938 92.554688 183.953125 93.039062 C 184.320312 94.601562 184.6875 96.152344 185.28125 97.664062 C 186.453125 100.628906 188.160156 103.230469 190.285156 105.5625 C 191.339844 106.71875 192.515625 107.761719 193.65625 108.835938 C 194.289062 109.429688 194.960938 109.988281 195.621094 110.554688 C 195.726562 110.644531 195.878906 110.675781 196.007812 110.734375 C 195.960938 110.59375 195.945312 110.429688 195.863281 110.3125 C 195.34375 109.589844 194.765625 108.90625 194.289062 108.15625 C 193.234375 106.5 192.214844 104.820312 191.210938 103.132812 C 189.832031 100.820312 188.398438 98.527344 187.136719 96.152344 C 185.796875 93.628906 184.46875 91.082031 184.003906 88.167969 M 223.871094 78.675781 C 224.71875 78.515625 225.519531 78.734375 226.308594 79 C 228.570312 79.765625 230.175781 81.3125 231.269531 83.378906 C 232.046875 84.847656 232.394531 86.449219 232.289062 88.132812 C 232.28125 88.265625 232.363281 88.40625 232.40625 88.542969 C 232.488281 88.402344 232.636719 88.265625 232.644531 88.125 C 232.703125 86.875 232.792969 85.621094 232.761719 84.371094 C 232.738281 83.570312 232.597656 82.753906 232.394531 81.972656 C 231.664062 79.160156 229.441406 77.566406 226.566406 77.695312 C 225.613281 77.738281 224.667969 77.996094 223.726562 78.183594 C 223.457031 78.238281 223.207031 78.390625 222.949219 78.5 C 223.214844 78.558594 223.480469 78.617188 223.871094 78.675781 M 207.921875 122.269531 C 207.808594 122.199219 207.699219 122.105469 207.578125 122.054688 C 207.410156 121.984375 207.230469 121.945312 207.058594 121.890625 C 207.144531 122.023438 207.207031 122.179688 207.320312 122.285156 C 208.617188 123.511719 209.914062 124.734375 211.230469 125.941406 C 211.34375 126.042969 211.636719 126.078125 211.765625 126 C 212.007812 125.859375 212.226562 125.636719 212.378906 125.398438 C 212.445312 125.292969 212.378906 124.972656 212.273438 124.910156 C 210.855469 124.035156 209.417969 123.1875 207.921875 122.269531 Z M 207.921875 122.269531 " fill-opacity="1" fill-rule="nonzero"/></g></svg>